<svg width="30" height="24" viewBox="0 0 30 24" fill="none" xmlns="http://www.w3.org/2000/svg">
<path d="M28.2 23.8C28.0153 23.7994 27.8344 23.7477 27.6773 23.6506C27.5202 23.5536 27.3931 23.4149 27.31 23.25C26.1548 20.978 24.3933 19.07 22.2206 17.7374C20.0479 16.4047 17.5488 15.6994 15 15.6994C12.4512 15.6994 9.95209 16.4047 7.77941 17.7374C5.60674 19.07 3.84526 20.978 2.69 23.25C2.63714 23.3769 2.55866 23.4916 2.45947 23.5868C2.36029 23.6821 2.24252 23.7558 2.11354 23.8035C1.98455 23.8512 1.84712 23.8718 1.70983 23.8639C1.57254 23.8561 1.43834 23.82 1.31563 23.758C1.19291 23.6959 1.0843 23.6092 0.996604 23.5033C0.908905 23.3974 0.843993 23.2745 0.805926 23.1424C0.767858 23.0102 0.757454 22.8717 0.775361 22.7353C0.793269 22.599 0.839104 22.4678 0.910003 22.35C2.23054 19.7474 4.24609 17.5614 6.73315 16.0345C9.22021 14.5075 12.0816 13.6992 15 13.6992C17.9184 13.6992 20.7798 14.5075 23.2669 16.0345C25.7539 17.5614 27.7695 19.7474 29.09 22.35C29.2086 22.5861 29.2289 22.8596 29.1465 23.1107C29.064 23.3618 28.8855 23.5701 28.65 23.69C28.5117 23.764 28.3569 23.8018 28.2 23.8Z" />
<path d="M5.40002 0.499981C5.00446 0.499981 4.61778 0.61728 4.28888 0.837042C3.95999 1.05681 3.70364 1.36916 3.55227 1.73461C3.40089 2.10007 3.36128 2.5022 3.43845 2.89016C3.51563 3.27812 3.70611 3.63449 3.98581 3.91419C4.26552 4.1939 4.62188 4.38438 5.00984 4.46155C5.39781 4.53872 5.79994 4.49912 6.16539 4.34774C6.53084 4.19637 6.8432 3.94002 7.06296 3.61112C7.28273 3.28222 7.40002 2.89554 7.40002 2.49998C7.40835 2.23508 7.36232 1.97129 7.26475 1.72487C7.16719 1.47845 7.02017 1.25464 6.83277 1.06724C6.64537 0.879833 6.42155 0.732815 6.17513 0.635253C5.92872 0.53769 5.66492 0.491654 5.40002 0.499981Z" />
<path d="M24.6 0.499981C24.2044 0.499981 23.8177 0.61728 23.4888 0.837042C23.1599 1.05681 22.9036 1.36916 22.7522 1.73461C22.6008 2.10007 22.5612 2.5022 22.6384 2.89016C22.7156 3.27812 22.9061 3.63449 23.1858 3.91419C23.4655 4.1939 23.8218 4.38438 24.2098 4.46155C24.5978 4.53872 24.9999 4.49912 25.3653 4.34774C25.7308 4.19637 26.0432 3.94002 26.2629 3.61112C26.4827 3.28222 26.6 2.89554 26.6 2.49998C26.6083 2.23508 26.5623 1.97129 26.4647 1.72487C26.3671 1.47845 26.2201 1.25464 26.0327 1.06724C25.8453 0.879833 25.6215 0.732815 25.3751 0.635253C25.1287 0.53769 24.8649 0.491654 24.6 0.499981Z" />
</svg>
