<svg width="30" height="24" viewBox="0 0 30 24" >
<path d="M5.40002 0.499981C5.00446 0.499981 4.61778 0.61728 4.28888 0.837042C3.95999 1.05681 3.70364 1.36916 3.55227 1.73461C3.40089 2.10007 3.36128 2.5022 3.43845 2.89016C3.51563 3.27812 3.70611 3.63449 3.98581 3.91419C4.26552 4.1939 4.62188 4.38438 5.00984 4.46155C5.39781 4.53872 5.79994 4.49912 6.16539 4.34774C6.53084 4.19637 6.8432 3.94002 7.06296 3.61112C7.28273 3.28222 7.40002 2.89554 7.40002 2.49998C7.40835 2.23508 7.36232 1.97129 7.26475 1.72487C7.16719 1.47845 7.02017 1.25464 6.83277 1.06724C6.64537 0.879833 6.42155 0.732815 6.17513 0.635253C5.92872 0.53769 5.66492 0.491654 5.40002 0.499981Z" />
<path d="M24.6 0.499981C24.2044 0.499981 23.8177 0.61728 23.4888 0.837042C23.1599 1.05681 22.9036 1.36916 22.7522 1.73461C22.6008 2.10007 22.5612 2.5022 22.6384 2.89016C22.7156 3.27812 22.9061 3.63449 23.1858 3.91419C23.4655 4.1939 23.8218 4.38438 24.2098 4.46155C24.5978 4.53872 24.9999 4.49912 25.3653 4.34774C25.7308 4.19637 26.0432 3.94002 26.2629 3.61112C26.4827 3.28222 26.6 2.89554 26.6 2.49998C26.6083 2.23508 26.5623 1.97129 26.4647 1.72487C26.3671 1.47845 26.2201 1.25464 26.0327 1.06724C25.8453 0.879833 25.6215 0.732815 25.3751 0.635253C25.1287 0.53769 24.8649 0.491654 24.6 0.499981Z" />
<path d="M28.5 23.5C28.3255 23.4989 28.1543 23.4522 28.0034 23.3645C27.8526 23.2768 27.7273 23.1511 27.64 23C25.55 19.42 21.3 17.6 15 17.6C8.70001 17.6 4.45001 19.42 2.36001 23C2.21441 23.2002 1.99971 23.3393 1.75747 23.3903C1.51523 23.4414 1.26267 23.4008 1.04865 23.2763C0.834632 23.1519 0.674375 22.9525 0.59889 22.7167C0.523405 22.481 0.538058 22.2256 0.640013 22C3.07001 17.81 8.00001 15.6 15 15.6C22 15.6 26.93 17.81 29.36 22C29.4912 22.2284 29.527 22.4993 29.4596 22.754C29.3922 23.0086 29.227 23.2264 29 23.36C28.85 23.4532 28.6766 23.5017 28.5 23.5Z" />
</svg>
