<svg width="24" height="20" viewBox="0 0 24 20" >
<path d="M2.40002 0.499981C2.00446 0.499981 1.61778 0.61728 1.28888 0.837042C0.959986 1.05681 0.703642 1.36916 0.552266 1.73461C0.400891 2.10007 0.361284 2.5022 0.438455 2.89016C0.515625 3.27812 0.706106 3.63449 0.985811 3.91419C1.26552 4.1939 1.62188 4.38438 2.00984 4.46155C2.39781 4.53872 2.79994 4.49912 3.16539 4.34774C3.53084 4.19637 3.8432 3.94002 4.06296 3.61112C4.28273 3.28222 4.40002 2.89554 4.40002 2.49998C4.40835 2.23508 4.36232 1.97129 4.26475 1.72487C4.16719 1.47845 4.02017 1.25464 3.83277 1.06724C3.64537 0.879833 3.42155 0.732815 3.17513 0.635253C2.92872 0.53769 2.66492 0.491654 2.40002 0.499981Z" />
<path d="M21.6 0.499981C21.2044 0.499981 20.8177 0.61728 20.4888 0.837042C20.1599 1.05681 19.9036 1.36916 19.7522 1.73461C19.6008 2.10007 19.5612 2.5022 19.6384 2.89016C19.7156 3.27812 19.9061 3.63449 20.1858 3.91419C20.4655 4.1939 20.8218 4.38438 21.2098 4.46155C21.5978 4.53872 21.9999 4.49912 22.3653 4.34774C22.7308 4.19637 23.0432 3.94002 23.2629 3.61112C23.4827 3.28222 23.6 2.89554 23.6 2.49998C23.6083 2.23508 23.5623 1.97129 23.4647 1.72487C23.3671 1.47845 23.2201 1.25464 23.0327 1.06724C22.8453 0.879833 22.6215 0.732815 22.3751 0.635253C22.1287 0.53769 21.8649 0.491654 21.6 0.499981Z" />
<path d="M21 19.8H3C2.73478 19.8 2.48043 19.6947 2.29289 19.5072C2.10536 19.3196 2 19.0653 2 18.8C2 18.5348 2.10536 18.2805 2.29289 18.0929C2.48043 17.9054 2.73478 17.8 3 17.8H21C21.2652 17.8 21.5196 17.9054 21.7071 18.0929C21.8946 18.2805 22 18.5348 22 18.8C22 19.0653 21.8946 19.3196 21.7071 19.5072C21.5196 19.6947 21.2652 19.8 21 19.8Z" />
</svg>
