<svg width="30" height="24" viewBox="0 0 30 24" >
<path d="M5.40002 0.499981C5.00446 0.499981 4.61778 0.61728 4.28888 0.837042C3.95999 1.05681 3.70364 1.36916 3.55227 1.73461C3.40089 2.10007 3.36128 2.5022 3.43845 2.89016C3.51563 3.27812 3.70611 3.63449 3.98581 3.91419C4.26552 4.1939 4.62188 4.38438 5.00984 4.46155C5.39781 4.53872 5.79994 4.49912 6.16539 4.34774C6.53084 4.19637 6.8432 3.94002 7.06296 3.61112C7.28273 3.28222 7.40002 2.89554 7.40002 2.49998C7.40835 2.23508 7.36232 1.97129 7.26475 1.72487C7.16719 1.47845 7.02017 1.25464 6.83277 1.06724C6.64537 0.879833 6.42155 0.732815 6.17513 0.635253C5.92872 0.53769 5.66492 0.491654 5.40002 0.499981Z" />
<path d="M24.6 0.499981C24.2044 0.499981 23.8177 0.61728 23.4888 0.837042C23.1599 1.05681 22.9036 1.36916 22.7522 1.73461C22.6008 2.10007 22.5612 2.5022 22.6384 2.89016C22.7156 3.27812 22.9061 3.63449 23.1858 3.91419C23.4655 4.1939 23.8218 4.38438 24.2098 4.46155C24.5978 4.53872 24.9999 4.49912 25.3653 4.34774C25.7308 4.19637 26.0432 3.94002 26.2629 3.61112C26.4827 3.28222 26.6 2.89554 26.6 2.49998C26.6083 2.23508 26.5623 1.97129 26.4647 1.72487C26.3671 1.47845 26.2201 1.25464 26.0327 1.06724C25.8453 0.879833 25.6215 0.732815 25.3751 0.635253C25.1287 0.53769 24.8649 0.491654 24.6 0.499981Z" />
<path d="M15 23.5C7.99999 23.5 3.06999 21.29 0.639988 17.1C0.557691 16.9868 0.500057 16.8577 0.470814 16.7208C0.441571 16.584 0.441368 16.4426 0.470221 16.3056C0.499073 16.1687 0.556337 16.0394 0.638312 15.926C0.720286 15.8126 0.825145 15.7177 0.94611 15.6473C1.06707 15.577 1.20145 15.5328 1.34055 15.5177C1.47966 15.5026 1.62039 15.5168 1.75365 15.5595C1.88691 15.6021 2.00973 15.6723 2.11417 15.7654C2.21862 15.8585 2.30236 15.9725 2.35999 16.1C4.44999 19.68 8.69999 21.5 15 21.5C21.3 21.5 25.55 19.68 27.64 16.1C27.6976 15.9725 27.7814 15.8585 27.8858 15.7654C27.9902 15.6723 28.1131 15.6021 28.2463 15.5595C28.3796 15.5168 28.5203 15.5026 28.6594 15.5177C28.7985 15.5328 28.9329 15.577 29.0539 15.6473C29.1748 15.7177 29.2797 15.8126 29.3617 15.926C29.4436 16.0394 29.5009 16.1687 29.5298 16.3056C29.5586 16.4426 29.5584 16.584 29.5292 16.7208C29.4999 16.8577 29.4423 16.9868 29.36 17.1C26.93 21.29 22 23.5 15 23.5Z" />
</svg>
