<svg width="30" height="24" viewBox="0 0 30 24" >
<path d="M5.40002 0.5C5.00446 0.5 4.61778 0.617298 4.28888 0.837061C3.95999 1.05682 3.70364 1.36918 3.55227 1.73463C3.40089 2.10008 3.36128 2.50222 3.43845 2.89018C3.51563 3.27814 3.70611 3.63451 3.98581 3.91421C4.26552 4.19392 4.62188 4.3844 5.00984 4.46157C5.39781 4.53874 5.79994 4.49913 6.16539 4.34776C6.53084 4.19638 6.8432 3.94004 7.06296 3.61114C7.28273 3.28224 7.40002 2.89556 7.40002 2.5C7.40002 1.96957 7.18931 1.46086 6.81424 1.08579C6.43917 0.710714 5.93046 0.5 5.40002 0.5Z" />
<path d="M24.6 0.499981C24.2044 0.499981 23.8177 0.61728 23.4888 0.837042C23.1599 1.05681 22.9036 1.36916 22.7522 1.73461C22.6008 2.10007 22.5612 2.5022 22.6384 2.89016C22.7156 3.27812 22.9061 3.63449 23.1858 3.91419C23.4655 4.1939 23.8218 4.38438 24.2098 4.46155C24.5978 4.53872 24.9999 4.49912 25.3653 4.34774C25.7308 4.19637 26.0432 3.94002 26.2629 3.61112C26.4827 3.28222 26.6 2.89554 26.6 2.49998C26.6083 2.23508 26.5623 1.97129 26.4647 1.72487C26.3671 1.47845 26.2201 1.25464 26.0327 1.06724C25.8453 0.879833 25.6215 0.732815 25.3751 0.635253C25.1287 0.53769 24.8649 0.491654 24.6 0.499981Z" />
<path d="M15 23.8C12.0776 23.8196 9.2082 23.0195 6.71762 21.4905C4.22704 19.9615 2.21501 17.7649 0.909972 15.15C0.812907 14.9169 0.807613 14.6557 0.895151 14.4189C0.982689 14.182 1.15658 13.9871 1.38191 13.8731C1.60724 13.7592 1.86733 13.7347 2.10996 13.8046C2.35259 13.8745 2.55979 14.0336 2.68997 14.25C3.84523 16.522 5.60671 18.4299 7.77938 19.7626C9.95205 21.0952 12.4512 21.8006 15 21.8006C17.5488 21.8006 20.0479 21.0952 22.2206 19.7626C24.3932 18.4299 26.1547 16.522 27.31 14.25C27.3628 14.123 27.4413 14.0084 27.5405 13.9131C27.6397 13.8179 27.7575 13.7441 27.8864 13.6964C28.0154 13.6487 28.1529 13.6282 28.2901 13.636C28.4274 13.6439 28.5616 13.6799 28.6844 13.742C28.8071 13.804 28.9157 13.8907 29.0034 13.9966C29.0911 14.1026 29.156 14.2254 29.194 14.3576C29.2321 14.4897 29.2425 14.6283 29.2246 14.7646C29.2067 14.901 29.1609 15.0322 29.09 15.15C27.7849 17.7649 25.7729 19.9615 23.2823 21.4905C20.7917 23.0195 17.9224 23.8196 15 23.8Z" />
</svg>
